<?xml version="1.0" encoding="iso-8859-1"?>
<!-- Generator: Adobe Illustrator 17.1.0, SVG Export Plug-In . SVG Version: 6.00 Build 0)  -->
<!DOCTYPE svg PUBLIC "-//W3C//DTD SVG 1.1//EN" "http://www.w3.org/Graphics/SVG/1.1/DTD/svg11.dtd">
<svg version="1.1" id="Capa_1" xmlns="http://www.w3.org/2000/svg" xmlns:xlink="http://www.w3.org/1999/xlink" x="0px" y="0px"
	 viewBox="0 0 296.832 296.832" style="enable-background:new 0 0 296.832 296.832;" xml:space="preserve">
<g>
	<path d="M82.061,84.379c17.16-10.012,39.098-14.963,67.064-14.963s49.903,4.992,67.064,15.004
		c6.346,3.703,11.975,8.037,16.852,12.955c-1.629-40.303-32.703-72.582-72.477-76.047c1.446-2.176,2.293-4.785,2.293-7.594
		C162.857,6.148,156.709,0,149.125,0c-7.586,0-13.734,6.148-13.734,13.734c0,2.801,0.843,5.404,2.283,7.576
		c-40.292,3.391-72.329,36.24-73.491,77.098C69.291,93.045,75.262,88.346,82.061,84.379z"/>
	<path d="M207.958,98.199c-14.645-8.545-33.86-12.783-58.916-12.783c-25.056,0-44.48,4.279-59.127,12.824
		c-12.027,7.02-21.124,16.936-26.124,29.299v30.133c0,36.697,25.083,67.764,58.827,77.297c-3.393,6.141-4.43,13.893-2.986,22.328
		c2.964,17.31,1.951,21.514-2.724,25.353c-3.415,2.805-3.888,7.846-1.085,11.26c1.582,1.926,3.885,2.922,6.198,2.922
		c1.786,0,3.589-0.596,5.078-1.816c12.428-10.207,11.237-23.762,8.384-40.418c-1.11-6.488,0.079-11.623,3.346-14.457
		c0.041-0.037,0.088-0.064,0.13-0.1c2.513,2.771,6.13,4.521,10.166,4.521c4.62,0,8.697-2.289,11.187-5.787
		c0.579,0.064,1.173,0.07,1.776,0.002c1.002-0.119,2.571,0.219,3.679,1.533c1.601,1.9,1.814,5.41,0.583,9.629
		c-3.632,12.451-4.402,28.748,4.327,37.141c1.552,1.492,3.549,2.234,5.544,2.234c2.1,0,4.197-0.822,5.768-2.455
		c3.063-3.186,2.963-8.25-0.222-11.313c-1.521-1.463-3.648-8.815-0.058-21.127c2.868-9.834,0.803-16.758-1.591-21.082
		c30.9-11.107,52.673-40.857,52.673-75.666v-32.41C227.791,113.938,219.243,104.785,207.958,98.199z M158.972,221.268
		c-2.495-2.57-5.981-4.174-9.847-4.174c-3.866,0-7.353,1.604-9.849,4.174c-31.965-4.758-56.485-32.313-56.485-65.602
		c0-36.635,29.697-46.334,66.334-46.334c36.635,0,66.332,9.699,66.332,46.334C215.457,188.955,190.936,216.51,158.972,221.268z"/>
</g>
<g>
</g>
<g>
</g>
<g>
</g>
<g>
</g>
<g>
</g>
<g>
</g>
<g>
</g>
<g>
</g>
<g>
</g>
<g>
</g>
<g>
</g>
<g>
</g>
<g>
</g>
<g>
</g>
<g>
</g>
</svg>
