<?xml version="1.0" encoding="iso-8859-1"?>
<!-- Generator: Adobe Illustrator 17.1.0, SVG Export Plug-In . SVG Version: 6.00 Build 0)  -->
<!DOCTYPE svg PUBLIC "-//W3C//DTD SVG 1.1//EN" "http://www.w3.org/Graphics/SVG/1.1/DTD/svg11.dtd">
<svg version="1.1" id="Capa_1" xmlns="http://www.w3.org/2000/svg" xmlns:xlink="http://www.w3.org/1999/xlink" x="0px" y="0px"
	 viewBox="0 0 296.005 296.005" style="enable-background:new 0 0 296.005 296.005;" xml:space="preserve">
<g>
	<path d="M272.637,36.07L208.454,1.14c-4.348-2.366-10.096-0.895-12.773,3.268c0,0-20.996,32.661-46.912,32.8
		c-26.428,0.144-48.336-32.871-48.336-32.871c-2.737-4.125-8.534-5.563-12.882-3.197L23.368,36.07
		c-4.348,2.366-6.475,8.091-4.726,12.722l13.873,36.743c1.748,4.631,6.808,6.622,11.243,4.424l16.976-8.411
		c4.436-2.198,8.192,0.052,8.348,4.999l6.316,200.402c0.155,4.948,4.333,9.057,9.283,9.057h23.709c4.95,0,9.736-4.043,10.636-8.91
		c0,0,8.696-47.078,28.978-47.078c20.279,0,28.976,47.094,28.976,47.094c0.899,4.867,5.685,8.895,10.636,8.895h23.709
		c4.95,0,9.128-4.108,9.283-9.057l6.316-200.372c0.155-4.947,3.912-7.212,8.348-5.015l16.977,8.404
		c4.436,2.198,9.495,0.203,11.243-4.428l13.873-36.747C279.112,44.16,276.985,38.436,272.637,36.07z M177.627,139.583
		c0,5.388-4.296,9.422-9.994,9.422c-0.001,0-0.002,0-0.003,0c-2.167,0-5.467-0.571-9.322-3.285c0.429,4.644-0.683,7.787-1.754,9.648
		c-1.87,3.25-5.066,5.206-8.551,5.206c-3.484,0-6.681-1.94-8.551-5.19c-1.071-1.862-2.183-4.99-1.753-9.635
		c-3.857,2.714-7.158,3.316-9.325,3.316c-3.751,0-7.025-1.791-8.758-4.791c-1.721-2.98-1.641-6.678,0.215-9.892
		c1.079-1.869,3.248-4.414,7.533-6.382c-0.866-0.398-1.682-0.836-2.444-1.314c-4.157-2.599-6.541-6.351-6.541-10.294
		c0-5.387,4.297-9.449,9.995-9.449c2.167,0,5.469,0.602,9.324,3.316c-0.429-4.644,0.683-7.772,1.754-9.634
		c1.87-3.25,5.066-5.19,8.551-5.19c3.484,0,6.681,1.94,8.551,5.19c1.071,1.861,2.183,4.99,1.754,9.634
		c3.855-2.714,7.157-3.316,9.324-3.316c5.699,0,9.997,4.063,9.997,9.45c0,3.943-2.385,7.695-6.542,10.294
		c-0.794,0.496-1.644,0.95-2.55,1.361C173.931,130.42,177.626,134.191,177.627,139.583z"/>
	<circle cx="148.003" cy="128.005" r="8"/>
</g>
<g>
</g>
<g>
</g>
<g>
</g>
<g>
</g>
<g>
</g>
<g>
</g>
<g>
</g>
<g>
</g>
<g>
</g>
<g>
</g>
<g>
</g>
<g>
</g>
<g>
</g>
<g>
</g>
<g>
</g>
</svg>
