<?xml version="1.0" encoding="iso-8859-1"?>
<!-- Generator: Adobe Illustrator 17.1.0, SVG Export Plug-In . SVG Version: 6.00 Build 0)  -->
<!DOCTYPE svg PUBLIC "-//W3C//DTD SVG 1.1//EN" "http://www.w3.org/Graphics/SVG/1.1/DTD/svg11.dtd">
<svg version="1.1" id="Capa_1" xmlns="http://www.w3.org/2000/svg" xmlns:xlink="http://www.w3.org/1999/xlink" x="0px" y="0px"
	 viewBox="0 0 384.801 384.801" style="enable-background:new 0 0 384.801 384.801;" xml:space="preserve">
<g>
	<path d="M128.342,100.683c-8.28,0-15.66,4.279-20.406,10.919c-4.746-6.64-12.126-10.919-20.408-10.919
		c-7.678,0-16.37,4.976-20.666,11.831c-3.66,5.838-5.453,13.231-4.918,20.288c1.247,16.338,11.109,31.382,27.059,41.275
		c4.784,2.968,10.463,5.41,17.362,7.468c0.14,0.042,0.281,0.063,0.422,0.094c0.106,0.022,0.209,0.053,0.317,0.069
		c0.265,0.041,0.53,0.063,0.793,0.064c0.013,0,0.025,0.003,0.038,0.003c0.001,0,0.002,0,0.002,0c0.001,0,0.001,0,0.002,0
		c0.014,0,0.026-0.003,0.04-0.003c0.261-0.003,0.524-0.023,0.788-0.064c0.111-0.018,0.218-0.049,0.327-0.072
		c0.138-0.03,0.277-0.051,0.414-0.092c6.9-2.058,12.58-4.501,17.361-7.468c15.951-9.893,25.814-24.937,27.059-41.277
		c0.535-7.055-1.258-14.449-4.919-20.285C144.714,105.658,136.021,100.683,128.342,100.683z M142.961,131.965
		c-0.976,12.8-8.954,24.741-21.89,32.764c-3.587,2.226-7.903,4.123-13.134,5.784c-5.229-1.661-9.546-3.558-13.135-5.784
		c-12.934-8.023-20.913-19.964-21.889-32.761c-0.36-4.76,0.832-9.722,3.271-13.612c2.267-3.617,7.463-6.673,11.346-6.673
		c8.22,0,14.908,7.786,14.908,17.357c0,3.037,2.462,5.5,5.5,5.5c3.038,0,5.5-2.463,5.5-5.5c0-9.571,6.687-17.357,14.905-17.357
		c3.884,0,9.081,3.056,11.349,6.675C142.13,122.246,143.322,127.206,142.961,131.965z"/>
	<path d="M287.14,200.163h-20.036c-0.546,0-1.072,0.082-1.57,0.23c-0.216-0.025-0.435-0.043-0.657-0.043
		c-30.108,0-54.603-24.495-54.603-54.605V5.5c0-3.037-2.463-5.5-5.5-5.5H10.842c-3.038,0-5.5,2.463-5.5,5.5v286.979
		c0,50.906,41.415,92.321,92.32,92.321H287.14c50.904,0,92.318-41.414,92.318-92.318
		C379.458,241.577,338.044,200.163,287.14,200.163z M199.274,11v43.683H16.342V11H199.274z M16.342,292.479v-47.724
		c70.997,0.584,128.661,58.104,129.484,129.045H97.662C52.822,373.801,16.342,337.32,16.342,292.479z M287.14,373.801H156.827
		c-0.824-77.006-63.422-139.46-140.484-140.045V65.683h182.932v80.063c0,36.175,29.43,65.605,65.603,65.605
		c0.546,0,1.072-0.082,1.569-0.23c0.217,0.025,0.436,0.043,0.658,0.043h20.036c44.839,0,81.318,36.479,81.318,81.319
		C368.458,337.321,331.979,373.801,287.14,373.801z"/>
</g>
<g>
</g>
<g>
</g>
<g>
</g>
<g>
</g>
<g>
</g>
<g>
</g>
<g>
</g>
<g>
</g>
<g>
</g>
<g>
</g>
<g>
</g>
<g>
</g>
<g>
</g>
<g>
</g>
<g>
</g>
</svg>
