<?xml version="1.0" encoding="iso-8859-1"?>
<!-- Generator: Adobe Illustrator 17.1.0, SVG Export Plug-In . SVG Version: 6.00 Build 0)  -->
<!DOCTYPE svg PUBLIC "-//W3C//DTD SVG 1.1//EN" "http://www.w3.org/Graphics/SVG/1.1/DTD/svg11.dtd">
<svg version="1.1" id="Capa_1" xmlns="http://www.w3.org/2000/svg" xmlns:xlink="http://www.w3.org/1999/xlink" x="0px" y="0px"
	 viewBox="0 0 298.223 298.223" style="enable-background:new 0 0 298.223 298.223;" xml:space="preserve">
<g>
	<path d="M268.496,43.469c0-23.944-19.48-43.424-43.425-43.424c-20.935,0-38.455,14.802-42.53,34.547
		c-8.122-2.138-16.713-3.369-25.65-3.369h-10.968c-10.366,0-20.472,1.62-30.042,4.469C112.239,15.403,94.472,0,73.151,0
		C49.207,0,29.727,19.502,29.727,43.446c0,17.766,10.561,33.075,25.874,39.794c-7.408,13.31-11.822,28.534-11.822,44.851v70.178
		c0,54.492,47.654,99.953,102.145,99.953h10.968c54.49,0,95.888-45.461,95.888-99.953v-70.178c0-16.348-3.593-31.588-10.324-44.916
		C257.679,76.42,268.496,61.17,268.496,43.469z M197.856,40.135c1.651-13.554,13.223-24.09,27.215-24.09
		c15.122,0,27.425,12.303,27.425,27.424c0,11.966-7.705,22.159-18.411,25.897C224.732,56.802,212.343,46.736,197.856,40.135z
		 M73.151,16.045c14.525,0,26.443,11.354,27.361,25.65C86.63,48.33,74.427,57.906,64.955,69.643
		c-11.131-3.493-19.229-13.904-19.229-26.174C45.727,28.348,58.029,16.045,73.151,16.045z M148.702,283.508
		c-49.032,0-88.775-39.742-88.775-88.771c0-49.027,39.743-62.008,88.775-62.008c49.028,0,88.773,12.98,88.773,62.008
		C237.476,243.766,197.73,283.508,148.702,283.508z"/>
</g>
<g>
</g>
<g>
</g>
<g>
</g>
<g>
</g>
<g>
</g>
<g>
</g>
<g>
</g>
<g>
</g>
<g>
</g>
<g>
</g>
<g>
</g>
<g>
</g>
<g>
</g>
<g>
</g>
<g>
</g>
</svg>
