<?xml version="1.0" encoding="iso-8859-1"?>
<!-- Generator: Adobe Illustrator 18.0.0, SVG Export Plug-In . SVG Version: 6.00 Build 0)  -->
<!DOCTYPE svg PUBLIC "-//W3C//DTD SVG 1.1//EN" "http://www.w3.org/Graphics/SVG/1.1/DTD/svg11.dtd">
<svg version="1.1" id="Capa_1" xmlns="http://www.w3.org/2000/svg" xmlns:xlink="http://www.w3.org/1999/xlink" x="0px" y="0px"
	 viewBox="0 0 164.342 164.342" style="enable-background:new 0 0 164.342 164.342;" xml:space="preserve">
<g>
	<path d="M158.201,35.524c-0.343-0.278-0.712-0.521-1.104-0.724L100.539,5.462c-2.016-1.045-4.43-0.963-6.369,0.215
		c-1.94,1.179-3.124,3.285-3.124,5.555c0,4.871-3.963,8.833-8.833,8.833c-4.642,0-8.459-3.599-8.808-8.153
		c0.05-0.668-0.012-1.405-0.211-2.222c-0.78-3.196-3.827-5.301-7.091-4.912c-0.837,0.101-1.621,0.358-2.324,0.74
		C61.142,6.887,7.227,34.882,7.226,34.882c-0.391,0.203-0.76,0.445-1.102,0.723c-3.78,3.069-6.011,7.621-6.121,12.488
		c-0.109,4.87,1.916,9.52,5.565,12.766l0.127,0.113c3.038,2.703,6.951,4.192,11.018,4.192c2.173,0,4.294-0.42,6.305-1.248
		l8.216-3.381l-19.407,91.222c-0.408,1.918,0.072,3.918,1.306,5.443c1.234,1.524,3.09,2.41,5.052,2.41h128.051
		c0.007,0.001,0.014,0,0.02,0c3.59,0,6.5-2.91,6.5-6.5c0-0.647-0.095-1.272-0.271-1.863l-19.291-90.676l8.029,3.326
		c2.027,0.839,4.166,1.265,6.358,1.265c4.04,0,7.936-1.468,10.975-4.138l0.134-0.118c3.685-3.237,5.743-7.905,5.648-12.808
		C164.244,43.197,162.007,38.614,158.201,35.524z M150.106,51.144l-0.134,0.118c-1.018,0.894-2.515,1.145-3.772,0.625l-19.445-8.056
		c-2.229-0.923-4.788-0.535-6.645,1.008c-1.856,1.543-2.703,3.988-2.201,6.35l20.3,95.422H26.215l20.3-95.422
		c0.501-2.358-0.343-4.801-2.195-6.345c-1.852-1.545-4.406-1.936-6.636-1.019l-19.611,8.07c-1.249,0.513-2.726,0.262-3.744-0.643
		l-0.128-0.114c-1.076-0.957-1.213-2.135-1.199-2.752c0.012-0.541,0.16-1.507,0.95-2.347l48.631-25.251
		c3.55,7.263,11.016,12.278,19.63,12.278c8.616,0,16.082-5.016,19.631-12.281l48.533,25.176c0.806,0.855,0.954,1.84,0.965,2.391
		C151.354,48.978,151.21,50.174,150.106,51.144z"/>
	<path d="M52.131,89.787c-2.209,0-4,1.791-4,4v0.291c0,18.063,14.696,32.759,32.759,32.759h6.114
		c18.064,0,32.76-14.696,32.76-32.759v-0.291c0-2.209-1.791-4-4-4H52.131z M87.005,118.836H80.89
		c-12.392,0-22.687-9.151-24.482-21.05h55.079C109.692,109.685,99.396,118.836,87.005,118.836z"/>
</g>
<g>
</g>
<g>
</g>
<g>
</g>
<g>
</g>
<g>
</g>
<g>
</g>
<g>
</g>
<g>
</g>
<g>
</g>
<g>
</g>
<g>
</g>
<g>
</g>
<g>
</g>
<g>
</g>
<g>
</g>
</svg>
