<?xml version="1.0" encoding="iso-8859-1"?>
<!-- Generator: Adobe Illustrator 19.0.0, SVG Export Plug-In . SVG Version: 6.00 Build 0)  -->
<svg version="1.1" id="Capa_1" xmlns="http://www.w3.org/2000/svg" xmlns:xlink="http://www.w3.org/1999/xlink" x="0px" y="0px"
	 viewBox="0 0 423.213 423.213" style="enable-background:new 0 0 423.213 423.213;" xml:space="preserve">
<path id="XMLID_1_" d="M201.222,268.702c-0.192,4.846-4.181,8.645-8.987,8.645c-0.121,0-0.241-0.002-0.362-0.007
	c-8.651-0.342-17.368-0.776-26.648-1.328c-4.962-0.295-8.745-4.557-8.451-9.518c0.294-4.962,4.551-8.746,9.518-8.451
	c9.161,0.544,17.761,0.973,26.292,1.31C197.551,259.55,201.418,263.736,201.222,268.702z M229.504,242.566
	c0.128,0,0.256-0.002,0.385-0.008c8.229-0.346,16.641-0.792,25.003-1.325c4.961-0.317,8.726-4.595,8.408-9.556
	c-0.316-4.959-4.603-8.713-9.555-8.408c-8.232,0.526-16.513,0.965-24.612,1.305c-4.966,0.208-8.822,4.403-8.614,9.37
	C220.722,238.781,224.707,242.566,229.504,242.566z M193.991,224.573c-7.969-0.333-16.237-0.772-24.574-1.305
	c-4.966-0.314-9.238,3.448-9.556,8.408c-0.316,4.96,3.448,9.239,8.408,9.556c8.469,0.541,16.87,0.986,24.97,1.325
	c0.128,0.005,0.255,0.008,0.382,0.008c4.797,0,8.784-3.786,8.986-8.624C202.815,228.975,198.957,224.781,193.991,224.573z
	 M128.43,255.144c-8.638-0.72-17.31-1.427-25.917-2.113c-4.955-0.389-9.292,3.301-9.687,8.257c-0.395,4.955,3.302,9.292,8.257,9.687
	c8.586,0.684,17.235,1.389,25.852,2.107c0.254,0.021,0.507,0.032,0.758,0.032c4.631,0,8.567-3.554,8.958-8.253
	C137.064,259.907,133.383,255.556,128.43,255.144z M134.2,220.395c-8.085-0.722-16.238-1.428-24.287-2.117
	c-4.956-0.426-9.311,3.247-9.735,8.2s3.247,9.311,8.2,9.735c8.027,0.687,16.158,1.392,24.221,2.111
	c0.272,0.024,0.542,0.036,0.811,0.036c4.609,0,8.537-3.522,8.954-8.2C142.806,225.208,139.15,220.837,134.2,220.395z
	 M256.691,258.044c-8.87,0.532-17.704,0.974-26.257,1.314c-4.967,0.197-8.833,4.384-8.636,9.351
	c0.193,4.845,4.181,8.642,8.987,8.642c0.12,0,0.242-0.002,0.363-0.007c8.673-0.345,17.629-0.793,26.618-1.332
	c4.962-0.297,8.743-4.561,8.446-9.522C265.915,261.527,261.629,257.753,256.691,258.044z M422.19,325.201
	c-1.323,2.532-3.771,4.286-6.594,4.725c-57.113,8.882-129.573,13.774-204.032,13.774c-74.444,0-146.875-4.892-203.948-13.774
	c-2.82-0.439-5.265-2.189-6.589-4.718c-1.324-2.529-1.37-5.535-0.125-8.103c7.952-16.395,16.411-33.915,24.716-52.005
	c9.234-20.11,16.663-50.526,23.847-79.94c0.974-3.99,1.943-7.957,2.911-11.874c10.278-41.635,18.07-66.118,29.796-76.251
	c14.423-12.461,33.566-18.619,53.903-17.329h0.001c29.765,1.885,52.806,3.023,75.484,3.041c22.772-0.012,45.786-1.182,75.536-3.065
	c20.358-1.289,39.506,4.867,53.909,17.334c11.735,10.157,19.525,34.634,29.796,76.248c0.984,3.989,1.97,8.03,2.961,12.095
	c7.155,29.337,14.555,59.672,23.785,79.735c8.836,19.198,17.871,37.872,24.756,51.997
	C423.555,319.658,423.513,322.668,422.19,325.201z M400.753,313.925c-5.941-12.275-12.802-26.628-19.558-41.308
	c-0.668-1.453-1.325-2.947-1.974-4.483c-6.613,0.105-13.244,0.279-20.12,0.525c-4.963,0.178-9.139-3.705-9.316-8.672
	c-0.178-4.967,3.704-9.139,8.672-9.316c4.813-0.172,9.508-0.31,14.16-0.414c-1.773-5.4-3.477-11.059-5.127-16.892
	c-5.854,0.108-11.868,0.286-18.234,0.536c-4.979,0.179-9.151-3.673-9.347-8.64c-0.195-4.967,3.673-9.151,8.64-9.347
	c4.886-0.192,9.57-0.341,14.138-0.451c-2.19-8.534-4.312-17.228-6.412-25.84c-0.987-4.048-1.969-8.073-2.95-12.047
	c-5.055-20.484-14.465-58.612-24.1-66.951c-10.813-9.36-25.378-13.968-40.991-12.98c-30.099,1.906-53.422,3.089-76.665,3.102
	c-23.178,0.014-46.513-1.169-76.631-3.077h0.001c-15.599-0.982-30.164,3.625-40.999,12.985
	c-9.614,8.308-19.031,46.453-24.089,66.946c-0.964,3.903-1.929,7.854-2.9,11.829c-2.119,8.676-4.259,17.439-6.468,26.034
	c4.605,0.11,9.288,0.262,14.132,0.456c4.966,0.199,8.832,4.386,8.633,9.353s-4.362,8.836-9.353,8.633
	c-6.291-0.251-12.302-0.43-18.223-0.539c-1.652,5.834-3.356,11.496-5.131,16.896c4.637,0.104,9.324,0.241,14.024,0.41
	c4.967,0.178,8.85,4.349,8.672,9.316c-0.178,4.967-4.349,8.844-9.316,8.672c-6.726-0.241-13.423-0.416-19.979-0.522
	c-0.646,1.533-1.3,3.023-1.966,4.474c-6.535,14.236-13.147,28.086-19.535,41.313C76.616,321.537,143.18,325.7,211.564,325.7
	C279.957,325.7,346.544,321.538,400.753,313.925z M320.507,253.03c-8.634,0.686-17.27,1.393-25.942,2.108
	c-4.953,0.409-8.638,4.756-8.229,9.71c0.389,4.702,4.324,8.26,8.96,8.26c0.248,0,0.498-0.01,0.75-0.031
	c8.654-0.714,17.271-1.419,25.888-2.104c4.955-0.394,8.652-4.729,8.259-9.684C329.798,256.334,325.446,252.631,320.507,253.03z
	 M290.482,238.324c8.103-0.715,16.235-1.425,24.297-2.112c4.952-0.422,8.625-4.779,8.203-9.732
	c-0.423-4.952-4.774-8.633-9.732-8.203c-8.079,0.688-16.229,1.4-24.35,2.116c-4.951,0.437-8.611,4.805-8.174,9.756
	c0.413,4.683,4.342,8.209,8.955,8.209C289.946,238.36,290.213,238.348,290.482,238.324z M287.109,135.932
	c7.175-0.554,13.597,2.027,18.076,7.268c0.391,0.457,2.455,3.378,4.795,16.052c0.801,4.336,4.584,7.368,8.84,7.368
	c0.543,0,1.093-0.049,1.645-0.151c4.888-0.902,8.119-5.597,7.217-10.484c-2.338-12.662-4.972-19.981-8.811-24.476
	c-8.194-9.59-20.274-14.519-33.149-13.523c-4.955,0.383-8.662,4.711-8.279,9.667C277.826,132.608,282.167,136.312,287.109,135.932z"
	/>
<g>
</g>
<g>
</g>
<g>
</g>
<g>
</g>
<g>
</g>
<g>
</g>
<g>
</g>
<g>
</g>
<g>
</g>
<g>
</g>
<g>
</g>
<g>
</g>
<g>
</g>
<g>
</g>
<g>
</g>
</svg>
