<?xml version="1.0" encoding="iso-8859-1"?>
<!-- Generator: Adobe Illustrator 17.1.0, SVG Export Plug-In . SVG Version: 6.00 Build 0)  -->
<!DOCTYPE svg PUBLIC "-//W3C//DTD SVG 1.1//EN" "http://www.w3.org/Graphics/SVG/1.1/DTD/svg11.dtd">
<svg version="1.1" id="Capa_1" xmlns="http://www.w3.org/2000/svg" xmlns:xlink="http://www.w3.org/1999/xlink" x="0px" y="0px"
	 viewBox="0 0 345.792 345.792" style="enable-background:new 0 0 345.792 345.792;" xml:space="preserve">
<path d="M322.799,32.111l-72.66-30.958l-0.359-0.137C247.786,0.342,245.721,0,243.641,0c-8.579,0-15.825,5.739-18.033,14.291
	c-5.306,20.748-41.018,24.825-48.097,25.429c-2.39,0.191-6.885,0.189-9.204,0.002c-7.106-0.606-42.827-4.682-48.155-25.417
	C117.991,5.749,110.742,0,102.115,0c-2.074,0-4.137,0.342-6.131,1.016l-0.182,0.062L22.994,32.082
	C13.235,35.538,7.801,46.339,10.87,56.266l20.245,65.165c2.623,8.402,10.642,14.271,19.501,14.271h0.001
	c0.942,0,1.891-0.069,2.841-0.207l7.981-1.193L58.526,260.94c-0.408,5.183,1.227,10.135,4.603,13.952
	c3.429,3.899,8.418,6.242,13.675,6.426c17.541,0.654,58.78,6.58,62.886,46.401c1.013,10.076,9.643,18.073,19.648,18.073h27.118
	c10.152,0,18.596-7.814,19.64-18.032c4.107-39.859,45.352-45.736,62.882-46.389c5.259-0.184,10.246-2.55,13.68-6.444
	c3.383-3.83,5.017-8.795,4.609-13.973l-2.894-126.611l7.894,1.146c1.131,0.185,2.163,0.207,2.936,0.207
	c8.873,0,16.883-5.871,19.477-14.269l20.245-65.165C337.987,46.353,332.553,35.564,322.799,32.111z M231.013,161.934
	c-9.308,14.153-49.373,47.809-58.056,47.809c-8.502,0-48.933-33.777-58.178-47.809c-4.629-7.024-7.914-14.777-7.37-24.966
	c0.967-18.036,15.713-32.93,33.775-32.93c18.567,0,29.381,19.81,31.713,19.81c2.666,0,13.941-19.81,31.713-19.81
	c18.059,0,32.806,14.894,33.773,32.93C238.927,147.157,235.654,154.879,231.013,161.934z"/>
<g>
</g>
<g>
</g>
<g>
</g>
<g>
</g>
<g>
</g>
<g>
</g>
<g>
</g>
<g>
</g>
<g>
</g>
<g>
</g>
<g>
</g>
<g>
</g>
<g>
</g>
<g>
</g>
<g>
</g>
</svg>
