<svg width="176" height="52" viewBox="0 0 176 52" fill="black" xmlns="http://www.w3.org/2000/svg">
<path id="path22" class="st0" d="M216.6,392c-11.5-3.2-16.5-6.9-16.5-12.2c0-1.5,3.8-15.6,8.4-31.2s8.2-28.6,8-28.8
	c-0.2-0.2-7.2-1.8-15.5-3.4l-15.2-3l-7.1,6.6c-3.9,3.6-12.4,13.1-18.9,21c-12.2,14.9-14.7,16.6-18.3,11.9c-2.7-3.6-2.4-6.2,3.7-26.8
	c3.1-10.3,5.4-18.8,5.3-18.9c-0.1,0-7-0.8-15.3-1.7c-10.3-1.1-22.1-1.3-36.9-0.6c-12,0.6-26.3,0.9-31.9,0.7l-10.1-0.4l-0.1-4.3
	c0-2.4-0.4-4.7-0.8-5.2c-1.5-1.8-0.8-7.2,1-8.1c1.5-0.7,23.8,0.9,41.8,3c2.8,0.3-6.4-3.2-20.3-7.9c-13.9-4.7-25.9-8.9-26.6-9.4
	c-1.8-1.4-1.5-7.4,0.5-8.3c1.5-0.7,1.5-1-0.1-2.4c-2.8-2.5-1.7-8,1.8-8.5c1.7-0.2,12.8,5,28,13.2c21.6,11.6,28.5,14.6,48.7,21.2
	c12.9,4.2,23.6,7.6,23.7,7.5c0.6-0.7,39.6-136.9,39.6-138.3c0-2.7,11.3-22.2,16.9-29.1c5.8-7.2,15.1-12.3,23.9-13.1
	c7.3-0.7,172,9.8,178.4,11.3c3.2,0.8,4,1.7,4.3,4.6c0.2,2.1-0.5,4.6-1.7,6c-1.1,1.3-22.2,12.3-46.8,24.3c-24.6,12-44.9,22-45.1,22.2
	c-0.2,0.1,5,25.2,11.6,55.7c12.8,59.4,12.9,60.4,8,69.1c-5.8,10.3-17.3,17.2-34.6,20.9c-7.1,1.5-9.8,2.6-9.8,4.1
	c0,2.9,4.7,46.2,5,46.6c0.2,0.2,4.9-1.2,10.5-3.1c12.2-4.2,15.1-4,15.6,0.9c0.4,4.4-0.3,4.9-15.7,10.2c-12.3,4.3-17,5.1-18.1,3
	c-0.3-0.7-2-14.5-3.7-30.7l-3.1-29.5l-5.6,0c-4.6,0-47.9-7.7-56-9.9c-1.6-0.4-2.3,0.1-2.4,1.7c-0.1,1.3-3.7,14.3-8,29
	c-4.3,14.7-7.7,26.8-7.6,26.9c0.1,0.2,5.3,1.5,11.4,3.1c15.1,3.8,16.4,4.5,16,9c-0.3,3.3-0.8,3.7-4.8,3.9
	C229.6,395,222.6,393.7,216.6,392L216.6,392z M310.3,318.6c9.5-2.4,20.9-8.8,24-13.6c1.5-2.3,2.3-5.4,2.3-9.3
	c0-4.4-21.5-109.3-22.7-110.7c-0.1-0.1-26.9,26.6-59.6,59.3c-37,37.2-58.7,59.8-57.6,60.1c1,0.3,19.4,4,40.9,8.2
	C280.6,321.2,295.4,322.4,310.3,318.6L310.3,318.6z M348.8,159.9c13.5-6.6,24.3-12.1,23.8-12.3c-0.4-0.2-12.1,1.9-25.9,4.7l-25.1,5
	l-1,4.5c-1,4.5,0.7,11.2,2.7,10.4C323.8,172.1,335.3,166.5,348.8,159.9z M266.5,169.3c7.8-3.9,11.1-14.5,6.9-21.8
	c-6.5-11-28.1-11-34.5,0c-4.1,7.1-0.9,17.8,6.5,21.7C250,171.6,261.6,171.7,266.5,169.3L266.5,169.3z M250.1,162.1
	c-2.5-3.3-2.4-11.2,0.2-14c2.8-3,9.4-2.9,11.8,0.2c2.5,3.3,2.4,11.2-0.2,14C259.1,165.3,252.4,165.2,250.1,162.1L250.1,162.1z
	 M351.9,140.4c12.4-2.4,22.4-4.8,22.1-5.3c-0.2-0.5-8.1-1.3-17.5-1.8c-9.4-0.5-19.9-1.2-23.4-1.7c-6.3-0.8-6.3-0.8-6.9,3.2
	c-0.4,2.2-1,5.7-1.4,7.7c-0.7,3.4-0.5,3.6,1.9,2.9C328.1,145.1,339.5,142.8,351.9,140.4L351.9,140.4z"/>
</svg>