<svg version="1.0" xmlns="http://www.w3.org/2000/svg" viewBox="0 0 296 215">
  <path d="M145 4.9c-5.1 1.6-14 7-14 8.5 0 .4-1.8 2.9-4 5.5s-4 5.2-4 5.7-1.2 2.7-2.6 4.8c-1.4 2.1-3.4 7.1-4.4 11-.9 4-3.4 12.6-5.5 19.1-3.6 11.4-6.7 21.6-15.7 51-2.2 7.1-5.1 16.6-6.6 21.1l-2.5 8.1-4.6-1.4c-2.5-.8-6.6-2.1-9.1-2.8-18.2-5.3-25.6-8.3-43.5-17.4-21.4-10.9-24.7-11.8-25.3-6.8-.2 1.8.2 2.9 1.3 3.3 1.4.6 1.4.7-.1 1.8-.9.7-1.4 2.2-1.2 3.6.4 2.8.9 3 25.5 10.5 8.9 2.7 16.1 5 16 5.2-.2.1-7.9-.5-17.3-1.4-9.3-.9-17.8-1.4-18.7-1-1.7.6-2.4 4.7-1 6.1.4.3.7 2.1.7 3.9l.1 3.2 8 .3c4.4.1 15.7-.1 25.1-.5 16.5-.8 39.4.4 41.1 2.1.4.4-1.1 6.2-3.5 12.9-5.6 16.1-5.5 22.7.3 22.7 2 0 12.5-10.8 12.5-12.8 0-.6 4.3-5 9.6-9.8l9.6-8.8 12.1 2.2c6.7 1.3 12.3 2.4 12.4 2.6.3.3-1.5 6.1-8.6 27.6-4.6 14-5.1 19-2.2 22.1 2.1 2.3 19.7 7.2 24 6.7 2-.2 2.7-.9 2.9-3 .4-3.3-.8-4-12.7-6.8-4.6-1-8.5-2.1-8.7-2.3-.4-.4-.1-1.5 5.5-19.2 4.5-14.6 6.7-22.6 6.3-23.8-.1-.5.5-.6 1.5-.3 5.1 1.5 41.6 7.6 45.6 7.6h4.5l.6 8.7c.8 11.7 3.5 35.3 4.2 36.4 1 1.7 5.9.8 16.4-2.9 10.2-3.6 10.5-3.8 10.5-6.7 0-4.1-2.9-4.3-12.4-1-4.1 1.4-7.8 2.5-8.3 2.5-.4 0-.8-2.6-.8-5.8 0-3.1-.7-10.4-1.5-16.2-2.2-15.8-2.6-14.6 5.1-15.9 15.7-2.8 26.6-9.9 29.9-19.4 1.8-5.3 1.8-5.8.1-13.9-3.1-15-13.5-59.5-17.4-75.1-.2-.9.1-1.7.7-1.7s4.8-1.7 9.3-3.9c4.6-2.1 11.5-5.3 15.3-7.1 7.2-3.3 18.3-8.5 27-12.5 2.8-1.3 8.5-3.9 12.7-5.9 4.2-1.9 8.1-4.4 8.7-5.5 1.8-3.2 1.3-6.1-1.1-7-2.3-.9-133.6-9.3-141.3-9.1-2.2.1-5.1.5-6.5.9zm101.8 12.7c7.3.4 13.4 1 13.7 1.4.4.6-38.6 8.2-39.2 7.6-.2-.2.2-2.7.9-5.5l1.2-5.3 5 .6c2.8.3 11.1.9 18.4 1.2zm-71.5 6c8.9 4.3 8.8 17.2-.2 21-4 1.7-11.3 1.8-15.6.3-6.4-2.3-9.6-11.5-5.9-16.8 4.1-5.8 14.4-8 21.7-4.5zm79.2 7.4c-5.5 2.6-20.5 9.6-30 13.9-3.9 1.8-4 1.8-5.3-.1-1-1.4-1.1-2.9-.5-5.6l.9-3.7 18.9-3.6c10.5-2 19.7-3.7 20.5-3.7.8-.1-1.2 1.2-4.5 2.8zm-38.2 39.5c1.4 6 4.5 19.3 6.7 29.5 2.3 10.2 5.1 22.2 6.1 26.7 2.8 12.1 2.6 16.5-1.1 20.6-3.4 3.9-12.4 8.3-20 9.7-11.3 2.1-21.3 1.2-55.3-5-18.1-3.3-33.2-6-33.7-6-.9 0 3.2-4 36.9-35.8 7.4-7 16.3-15.4 19.7-18.7 3.5-3.3 12.2-11.6 19.5-18.5 7.3-6.9 14.2-13.4 15.4-14.5 2.4-2.4 2.3-2.8 5.8 12z"/>
  <path d="M162.2 29c-1.6 2.6-1.5 8 .2 10.2.8 1.1 2.7 1.8 4.9 1.8 4.1 0 5.7-1.9 5.7-7s-1.6-7-5.8-7c-2.6 0-4.1.6-5 2z"/>
</svg>
