<?xml version="1.0" encoding="iso-8859-1"?>
<!-- Generator: Adobe Illustrator 18.0.0, SVG Export Plug-In . SVG Version: 6.00 Build 0)  -->
<!DOCTYPE svg PUBLIC "-//W3C//DTD SVG 1.1//EN" "http://www.w3.org/Graphics/SVG/1.1/DTD/svg11.dtd">
<svg version="1.1" id="Capa_1" xmlns="http://www.w3.org/2000/svg" xmlns:xlink="http://www.w3.org/1999/xlink" x="0px" y="0px"
	 viewBox="0 0 483.037 483.037" style="enable-background:new 0 0 483.037 483.037;" xml:space="preserve">
<g>
	<path d="M426.927,132.667L255.577,4.53c-3.962-2.963-8.682-4.529-13.648-4.529h-0.074C241.811,0.001,241.769,0,241.733,0
		L241.6,0.002c-0.05-0.001-0.102-0.001-0.15,0L241.303,0c-0.035,0-0.077,0.001-0.121,0.001h-0.074
		c-4.969,0-9.689,1.566-13.649,4.529L56.11,132.667c-10.071,7.532-12.14,21.855-4.607,31.931l14.355,19.197
		c4.285,5.731,11.118,9.152,18.279,9.152c3.118,0,6.144-0.625,8.949-1.827l21.605,233.918h-11.173c-15.715,0-28.5,12.785-28.5,28.5
		v1c0,15.715,12.785,28.5,28.5,28.5h276c15.715,0,28.5-12.785,28.5-28.5v-1c0-15.715-12.785-28.5-28.5-28.5h-11.174l21.606-233.918
		c2.806,1.202,5.83,1.827,8.948,1.827c7.161,0,13.994-3.421,18.278-9.151l14.357-19.198
		C439.067,154.522,436.999,140.198,426.927,132.667z M391.019,453.537v1c0,6.341-5.159,11.5-11.5,11.5h-276
		c-6.341,0-11.5-5.159-11.5-11.5v-1c0-6.341,5.159-11.5,11.5-11.5h276C385.86,442.037,391.019,447.196,391.019,453.537z
		 M131.764,425.037l-22.64-245.112l132.395-99.006l132.394,99.006l-22.641,245.112H131.764z M417.921,154.417l-14.357,19.198
		c-1.108,1.482-2.808,2.332-4.664,2.332c-0.876,0-2.19-0.201-3.47-1.159L246.61,63.498c-3.02-2.257-7.162-2.257-10.182,0
		L87.607,174.788c-1.28,0.958-2.593,1.159-3.47,1.159c-1.855,0-3.556-0.85-4.665-2.333l-14.354-19.196
		c-1.92-2.567-1.393-6.217,1.174-8.137l171.35-128.137c1.261-0.944,2.58-1.142,3.519-1.142c-0.015,0.001,0.05,0,0.077,0
		c0.079,0,0.182,0,0.229,0h0.026c0.028,0,0.055,0,0.078,0L241.712,17c0.075,0,0.15,0,0.217,0c0.885,0,2.204,0.198,3.468,1.143
		l171.35,128.137C419.313,148.2,419.839,151.851,417.921,154.417z"/>
	<path d="M241.519,144.674c-44.588,0-80.862,36.275-80.862,80.863s36.274,80.863,80.862,80.863s80.862-36.275,80.862-80.863
		S286.107,144.674,241.519,144.674z M241.519,289.4c-35.214,0-63.862-28.649-63.862-63.863s28.648-63.863,63.862-63.863
		s63.862,28.649,63.862,63.863S276.733,289.4,241.519,289.4z"/>
	<path d="M241.519,328.674c-18.121,0-32.863,14.742-32.863,32.863s14.742,32.863,32.863,32.863c18.12,0,32.862-14.742,32.862-32.863
		S259.639,328.674,241.519,328.674z M241.519,377.4c-8.747,0-15.863-7.116-15.863-15.863c0-8.747,7.116-15.863,15.863-15.863
		c8.746,0,15.862,7.116,15.862,15.863C257.381,370.284,250.265,377.4,241.519,377.4z"/>
</g>
<g>
</g>
<g>
</g>
<g>
</g>
<g>
</g>
<g>
</g>
<g>
</g>
<g>
</g>
<g>
</g>
<g>
</g>
<g>
</g>
<g>
</g>
<g>
</g>
<g>
</g>
<g>
</g>
<g>
</g>
</svg>
