<?xml version="1.0" encoding="iso-8859-1"?>
<!-- Generator: Adobe Illustrator 18.0.0, SVG Export Plug-In . SVG Version: 6.00 Build 0)  -->
<!DOCTYPE svg PUBLIC "-//W3C//DTD SVG 1.1//EN" "http://www.w3.org/Graphics/SVG/1.1/DTD/svg11.dtd">
<svg version="1.1" id="Capa_1" xmlns="http://www.w3.org/2000/svg" xmlns:xlink="http://www.w3.org/1999/xlink" x="0px" y="0px"
	 viewBox="0 0 182.43 182.43" style="enable-background:new 0 0 182.43 182.43;" xml:space="preserve">
<g>
	<path d="M175.43,74.92h-9.025c-3.287-17.248-18.472-30.331-36.663-30.331c-5.566,0-10.846,1.233-15.596,3.427
		c-6.344-6.887-13.696-12.715-21.953-17.333c-27.533-15.4-61.541-14.98-88.754,1.1c-2.168,1.281-3.48,3.628-3.438,6.146
		C0.356,58.624,7.96,78.286,20.897,93.72c-8.671,9.178-15.442,20.219-19.614,32.52c-0.81,2.385-0.274,5.021,1.399,6.902
		c17.055,19.163,41.517,29.868,66.659,29.867c5.835,0,11.709-0.577,17.532-1.758c26.981-5.473,49.35-22.596,61.715-47.128
		c9.119-5.357,15.77-14.471,17.815-25.203h9.025c3.866,0,7-3.134,7-7S179.296,74.92,175.43,74.92z M104.887,109.742
		c-17.746,3.928-36.258,1.273-52.534-7.831c-3.953-2.211-7.654-4.764-11.085-7.603c8.621-6.334,18.612-10.857,29.382-13.041
		c7.239-1.468,14.548-1.856,21.808-1.18c-0.03,0.607-0.047,1.218-0.047,1.833C92.411,92.965,97.237,102.901,104.887,109.742z
		 M85.358,42.902c6.453,3.609,12.253,8.086,17.324,13.342c-2.812,2.962-5.142,6.381-6.869,10.135
		c-9.299-1.087-18.673-0.713-27.947,1.168c-13.503,2.739-25.975,8.573-36.587,16.768c-9.842-11.907-15.947-26.747-17.093-42.487
		C36.465,30.281,63.363,30.599,85.358,42.902z M84.091,147.53c-24.695,5.011-50.413-2.888-68.11-20.679
		c3.48-8.65,8.514-16.471,14.731-23.145c4.526,3.935,9.475,7.44,14.807,10.423c13.543,7.575,28.383,11.39,43.302,11.389
		c11.546,0,23.141-2.288,34.208-6.885c1.951,0.356,3.953,0.559,5.996,0.598C118.129,133.773,102.364,143.823,84.091,147.53z
		 M129.741,105.25c-12.864,0-23.33-10.466-23.33-23.33c0-12.865,10.466-23.331,23.33-23.331c12.865,0,23.331,10.466,23.331,23.331
		C153.072,94.784,142.606,105.25,129.741,105.25z"/>
	<circle cx="129.742" cy="81.92" r="9.164"/>
</g>
<g>
</g>
<g>
</g>
<g>
</g>
<g>
</g>
<g>
</g>
<g>
</g>
<g>
</g>
<g>
</g>
<g>
</g>
<g>
</g>
<g>
</g>
<g>
</g>
<g>
</g>
<g>
</g>
<g>
</g>
</svg>
