<?xml version="1.0" encoding="iso-8859-1"?>
<!-- Generator: Adobe Illustrator 16.0.0, SVG Export Plug-In . SVG Version: 6.00 Build 0)  -->
<!DOCTYPE svg PUBLIC "-//W3C//DTD SVG 1.1//EN" "http://www.w3.org/Graphics/SVG/1.1/DTD/svg11.dtd">
<svg version="1.1" id="Capa_1" xmlns="http://www.w3.org/2000/svg" xmlns:xlink="http://www.w3.org/1999/xlink" x="0px" y="0px"
	 width="596.76px" height="596.76px" viewBox="0 0 596.76 596.76" style="enable-background:new 0 0 596.76 596.76;"
	 xml:space="preserve">
<g>
	<g>
		<path d="M469.348,137.254c-20.461-38.593-43.637-69.791-68.882-92.727c-14.802-13.449-30.335-23.979-46.168-31.299
			C336.029,4.782,317.216,0.5,298.38,0.5c-18.836,0-37.65,4.282-55.918,12.728c-15.833,7.319-31.367,17.85-46.169,31.299
			c-25.245,22.937-48.421,54.134-68.882,92.727c-18.051,34.045-33.208,72.671-43.832,111.702
			C72.917,288.125,67.28,326.006,67.28,358.5c0,33.805,6.016,65.924,17.88,95.469c11.555,28.777,28.294,54.289,49.75,75.826
			c42.7,42.859,100.754,66.465,163.469,66.465s120.769-23.605,163.468-66.465c21.457-21.537,38.196-47.049,49.751-75.826
			c11.864-29.545,17.88-61.664,17.88-95.469c0-32.494-5.636-70.375-16.299-109.544C502.556,209.925,487.398,171.299,469.348,137.254
			z M298.379,553.418c-103.973,0-188.259-78.654-188.259-194.918c0-116.264,84.286-315.16,188.259-315.16
			s188.26,198.896,188.26,315.16C486.639,474.764,402.352,553.418,298.379,553.418z"/>
		<path d="M298.38,596.76c-62.847,0-121.027-23.656-163.824-66.612c-21.504-21.585-38.28-47.152-49.86-75.992
			C72.808,424.551,66.78,392.368,66.78,358.5c0-32.536,5.642-70.461,16.316-109.676c10.634-39.066,25.805-77.728,43.873-111.805
			c20.487-38.642,43.698-69.885,68.987-92.863c14.84-13.483,30.416-24.042,46.295-31.382C260.586,4.298,279.47,0,298.38,0
			c18.909,0,37.793,4.298,56.128,12.774c15.88,7.341,31.455,17.9,46.294,31.382c25.289,22.976,48.5,54.22,68.987,92.863
			c18.068,34.078,33.239,72.739,43.874,111.805c10.674,39.211,16.316,77.137,16.316,109.676c0,33.868-6.027,66.051-17.916,95.655
			c-11.579,28.839-28.354,54.406-49.86,75.992C419.408,573.104,361.229,596.76,298.38,596.76z M298.38,1
			c-18.764,0-37.507,4.267-55.708,12.682c-15.788,7.298-31.279,17.801-46.042,31.215c-25.204,22.899-48.344,54.052-68.776,92.591
			c-18.034,34.013-33.176,72.603-43.792,111.599C73.41,288.217,67.78,326.052,67.78,358.5c0,33.74,6.004,65.798,17.844,95.282
			c11.53,28.715,28.231,54.17,49.641,75.66c42.607,42.766,100.536,66.317,163.115,66.317s120.508-23.552,163.114-66.317
			c21.411-21.491,38.112-46.946,49.642-75.66c11.84-29.485,17.844-61.543,17.844-95.282c0-32.452-5.63-70.287-16.281-109.413
			c-10.615-38.995-25.759-77.585-43.792-111.599c-20.434-38.541-43.573-69.693-68.776-92.591
			c-14.764-13.414-30.255-23.917-46.042-31.215C335.886,5.267,317.144,1,298.38,1z M298.379,553.918
			c-51.375,0-98.777-19.18-133.473-54.007c-35.651-35.786-55.286-86.007-55.286-141.411c0-59.109,21.667-138.168,55.198-201.413
			c17.908-33.776,38.636-61.862,59.946-81.223c24.119-21.913,48.887-33.024,73.615-33.024s49.496,11.111,73.615,33.024
			c21.31,19.36,42.039,47.447,59.946,81.223c33.531,63.245,55.198,142.304,55.198,201.413c0,55.404-19.634,105.625-55.286,141.411
			C397.156,534.738,349.754,553.918,298.379,553.918z M298.379,43.84c-24.472,0-49.014,11.023-72.943,32.764
			c-21.225,19.284-41.88,47.276-59.734,80.951C132.241,220.667,110.62,299.542,110.62,358.5c0,55.138,19.531,105.108,54.994,140.705
			c34.507,34.638,81.658,53.713,132.765,53.713s98.258-19.075,132.766-53.713c35.464-35.598,54.994-85.567,54.994-140.705
			c0-58.958-21.621-137.833-55.082-200.945c-17.854-33.675-38.51-61.667-59.735-80.951C347.393,54.864,322.851,43.84,298.379,43.84z
			"/>
	</g>
</g>
<g>
</g>
<g>
</g>
<g>
</g>
<g>
</g>
<g>
</g>
<g>
</g>
<g>
</g>
<g>
</g>
<g>
</g>
<g>
</g>
<g>
</g>
<g>
</g>
<g>
</g>
<g>
</g>
<g>
</g>
</svg>
