<?xml version="1.0" encoding="iso-8859-1"?>
<!-- Generator: Adobe Illustrator 18.0.0, SVG Export Plug-In . SVG Version: 6.00 Build 0)  -->
<!DOCTYPE svg PUBLIC "-//W3C//DTD SVG 1.1//EN" "http://www.w3.org/Graphics/SVG/1.1/DTD/svg11.dtd">
<svg version="1.1" id="Capa_1" xmlns="http://www.w3.org/2000/svg" xmlns:xlink="http://www.w3.org/1999/xlink" x="0px" y="0px"
	 viewBox="0 0 486.065 486.065" style="enable-background:new 0 0 486.065 486.065;" xml:space="preserve">
<path d="M480.227,6.129C475.986,1.888,469.725,0,459.885,0c-25.543,0-75.785,12.639-125.034,31.457
	c-3.876,1.483-6.792,4.762-7.801,8.788l-12.971,51.601l-8.083-32.17c-0.928-3.686-3.462-6.759-6.892-8.39
	c-3.445-1.64-7.421-1.623-10.866-0.017c-53.423,25.096-96.294,53.597-127.404,84.698c-47.608,47.608-79.976,98.149-93.609,146.138
	c-12.225,43.045-7.886,80.482,11.91,107.094l-75.14,75.148c-4.968,4.968-4.968,13.019,0,17.989c4.97,4.97,13.021,4.97,17.991,0
	l75.388-75.396c16.532,12.249,37.255,19,61.159,19c68.877,0,142.908-51.509,191.825-100.443
	C445.043,230.82,504.909,30.844,480.227,6.129z M91.707,289.055c12.259-43.202,43.202-91.183,87.117-135.098
	c10.271-10.262,22.379-20.16,35.466-29.834l8.697,121.232L97.473,370.878C84.42,350.793,82.233,322.358,91.707,289.055z
	 M115.38,388.935l35.664-35.666l95.763,20.077c-31.342,17.428-61.789,27.151-88.276,27.151
	C141.469,400.497,127.057,396.57,115.38,388.935z M277.519,353.8l-104.972-22.016l127.899-127.908c4.97-4.97,4.97-13.021,0-17.991
	c-4.97-4.968-13.021-4.968-17.989,0l-35.666,35.674l-8.183-114.06c14.362-9.111,29.602-18.006,46.515-26.455l16.632,66.079
	c1.423,5.657,6.509,9.616,12.34,9.616c5.83,0,10.917-3.968,12.34-9.625l23.672-94.215c50.756-18.843,92.186-27.457,109.778-27.457
	c0.497,0,0.945,0.008,1.342,0.017c2.534,33.71-43.235,196.43-128.861,282.048C314.526,325.357,296.039,340.688,277.519,353.8z"/>
<g>
</g>
<g>
</g>
<g>
</g>
<g>
</g>
<g>
</g>
<g>
</g>
<g>
</g>
<g>
</g>
<g>
</g>
<g>
</g>
<g>
</g>
<g>
</g>
<g>
</g>
<g>
</g>
<g>
</g>
</svg>
